<svg xmlns="http://www.w3.org/2000/svg" width="1280" height="720" viewBox="0 0 1280 720" role="img" aria-labelledby="title desc">
  <title id="title">Dashboard Reports publishing trend widget</title>
  <desc id="desc">Illustrated Capell admin dashboard chart card showing published and scheduled page trends.</desc>
  <rect width="1280" height="720" fill="#f8fafc"/>
  <rect x="92" y="72" width="1096" height="576" rx="28" fill="#ffffff" stroke="#dbe3ef" stroke-width="2"/>
  <rect x="132" y="112" width="1016" height="72" rx="18" fill="#eef6ff"/>
  <text x="164" y="158" font-family="Inter, Arial, sans-serif" font-size="30" font-weight="700" fill="#102033">Publishing Trend</text>
  <rect x="912" y="130" width="196" height="34" rx="17" fill="#ffffff" stroke="#bfd2ea"/>
  <text x="944" y="153" font-family="Inter, Arial, sans-serif" font-size="16" font-weight="600" fill="#2563eb">This month</text>
  <line x1="180" y1="560" x2="1100" y2="560" stroke="#d7e0ec" stroke-width="3"/>
  <line x1="180" y1="454" x2="1100" y2="454" stroke="#e7edf5" stroke-width="2"/>
  <line x1="180" y1="348" x2="1100" y2="348" stroke="#e7edf5" stroke-width="2"/>
  <line x1="180" y1="242" x2="1100" y2="242" stroke="#e7edf5" stroke-width="2"/>
  <polyline points="190,510 335,448 480,470 625,336 770,372 915,278 1060,314" fill="none" stroke="#2563eb" stroke-width="8" stroke-linecap="round" stroke-linejoin="round"/>
  <polyline points="190,536 335,502 480,410 625,438 770,318 915,358 1060,246" fill="none" stroke="#d97706" stroke-width="8" stroke-linecap="round" stroke-linejoin="round"/>
  <g fill="#2563eb">
    <circle cx="190" cy="510" r="11"/>
    <circle cx="335" cy="448" r="11"/>
    <circle cx="480" cy="470" r="11"/>
    <circle cx="625" cy="336" r="11"/>
    <circle cx="770" cy="372" r="11"/>
    <circle cx="915" cy="278" r="11"/>
    <circle cx="1060" cy="314" r="11"/>
  </g>
  <g fill="#d97706">
    <circle cx="190" cy="536" r="11"/>
    <circle cx="335" cy="502" r="11"/>
    <circle cx="480" cy="410" r="11"/>
    <circle cx="625" cy="438" r="11"/>
    <circle cx="770" cy="318" r="11"/>
    <circle cx="915" cy="358" r="11"/>
    <circle cx="1060" cy="246" r="11"/>
  </g>
  <rect x="178" y="596" width="18" height="18" rx="5" fill="#2563eb"/>
  <text x="210" y="612" font-family="Inter, Arial, sans-serif" font-size="18" fill="#334155">Published pages</text>
  <rect x="404" y="596" width="18" height="18" rx="5" fill="#d97706"/>
  <text x="436" y="612" font-family="Inter, Arial, sans-serif" font-size="18" fill="#334155">Scheduled pages</text>
</svg>
