<svg xmlns="http://www.w3.org/2000/svg" width="1200" height="800" viewBox="0 0 1200 800" role="img" aria-labelledby="title desc">
  <title id="title">Healthcare services listing layout</title>
  <desc id="desc">Service finder filters and care cards.</desc>
  <rect width="1200" height="800" fill="#f7fbfb"/>
  <rect x="90" y="80" width="1020" height="120" rx="24" fill="#0d4f57"/>
  <rect x="130" y="120" width="360" height="34" rx="17" fill="#d7f0ee"/>
  <rect x="90" y="245" width="260" height="440" rx="24" fill="#ffffff"/>
  <rect x="125" y="290" width="180" height="18" rx="9" fill="#12343b"/>
  <rect x="125" y="340" width="190" height="38" rx="19" fill="#eef7f6"/>
  <rect x="125" y="395" width="160" height="38" rx="19" fill="#eef7f6"/>
  <rect x="390" y="245" width="330" height="200" rx="24" fill="#ffffff"/>
  <rect x="760" y="245" width="330" height="200" rx="24" fill="#ffffff"/>
  <rect x="390" y="485" width="330" height="200" rx="24" fill="#ffffff"/>
  <rect x="760" y="485" width="330" height="200" rx="24" fill="#ffffff"/>
  <rect x="425" y="290" width="210" height="24" rx="12" fill="#0d4f57"/>
  <rect x="795" y="290" width="210" height="24" rx="12" fill="#0d4f57"/>
  <rect x="425" y="530" width="210" height="24" rx="12" fill="#0d4f57"/>
  <rect x="795" y="530" width="210" height="24" rx="12" fill="#0d4f57"/>
</svg>
