<svg xmlns="http://www.w3.org/2000/svg" width="1280" height="720" viewBox="0 0 1280 720" role="img" aria-labelledby="title desc">
  <title id="title">Restaurant homepage preview</title>
  <desc id="desc">Menu-led hospitality homepage with reservation and venue proof.</desc>
  <rect width="1280" height="720" fill="#e8f5ee"/>
  <rect x="92" y="70" width="1096" height="580" fill="#ffffff" stroke="#b8cec2" stroke-width="3"/>
  <rect x="132" y="118" width="430" height="360" fill="#f7fbf7"/>
  <rect x="168" y="158" width="110" height="16" fill="#b45309"/>
  <rect x="168" y="204" width="306" height="66" fill="#171312"/>
  <rect x="168" y="296" width="340" height="18" fill="#5f6660"/>
  <rect x="168" y="330" width="284" height="18" fill="#5f6660"/>
  <rect x="168" y="392" width="154" height="50" fill="#0f3d2e"/>
  <rect x="612" y="118" width="488" height="360" fill="#171312"/>
  <rect x="650" y="156" width="296" height="246" fill="#ffffff" opacity="0.18"/>
  <rect x="970" y="156" width="88" height="70" fill="#b45309"/>
  <rect x="970" y="254" width="88" height="70" fill="#ffffff" opacity="0.16"/>
  <rect x="970" y="352" width="88" height="70" fill="#0f3d2e"/>
  <rect x="132" y="520" width="294" height="72" fill="#ffffff" stroke="#d4e4dc"/>
  <rect x="454" y="520" width="294" height="72" fill="#ffffff" stroke="#d4e4dc"/>
  <rect x="776" y="520" width="294" height="72" fill="#ffffff" stroke="#d4e4dc"/>
</svg>
